<svg width="500" height="500" viewBox="0 0 500 500" fill="none" xmlns="http://www.w3.org/2000/svg">
<path d="M306.795 341.614H31.2622L30.16 65.1395C30.0828 45.7552 45.7753 30 65.1598 30H306.795C326.12 30 341.795 45.6961 341.795 65.0311V306.583C341.795 325.918 326.12 341.614 306.795 341.614Z" fill="url(#paint0_angular)" stroke="#50514F" stroke-width="10"/>
<path d="M435 470H159.467L158.365 193.526C158.288 174.141 173.98 158.386 193.365 158.386H435C454.325 158.386 470 174.082 470 193.417V434.969C470 454.304 454.325 470 435 470Z" fill="url(#paint1_angular)" stroke="#50514F" stroke-width="10"/>
<rect x="91.8846" y="121.169" width="29.0513" height="126.683" fill="#50514F" stroke="url(#paint2_linear)" stroke-width="3"/>
<rect x="220.59" y="251.352" width="124.205" height="28.4207" fill="#50514F" stroke="url(#paint3_linear)" stroke-width="4"/>
<defs>
<radialGradient id="paint0_angular" cx="0" cy="0" r="1" gradientUnits="userSpaceOnUse" gradientTransform="translate(94.4286 122.714) rotate(67.7787) scale(241.863 241.999)">
<stop stop-color="#028090"/>
<stop offset="0.21875" stop-color="#00A896"/>
</radialGradient>
<radialGradient id="paint1_angular" cx="0" cy="0" r="1" gradientUnits="userSpaceOnUse" gradientTransform="translate(222.357 253.214) rotate(67.4863) scale(240.083 240.218)">
<stop stop-color="#00A896"/>
<stop offset="1" stop-color="#02C393"/>
</radialGradient>
<linearGradient id="paint2_linear" x1="106.41" y1="119.669" x2="106.41" y2="249.352" gradientUnits="userSpaceOnUse">
<stop stop-color="#028090"/>
<stop offset="1" stop-color="#00A896"/>
</linearGradient>
<linearGradient id="paint3_linear" x1="219.143" y1="265.429" x2="346.429" y2="265.429" gradientUnits="userSpaceOnUse">
<stop stop-color="#00A896"/>
<stop offset="1" stop-color="#02C39A"/>
</linearGradient>
</defs>
</svg>
