<svg width="500" height="500" viewBox="0 0 500 500" fill="none" xmlns="http://www.w3.org/2000/svg">
<rect width="500" height="500" rx="25" fill="#F2E9E4"/>
<path d="M285.285 270.144H80.9773L80.16 65.1395C80.0828 45.7552 95.7753 30 115.16 30H285.285C304.611 30 320.285 45.6875 320.285 65.0208V235.123C320.285 254.457 304.611 270.144 285.285 270.144Z" fill="url(#paint0_angular)" stroke="#50514F" stroke-width="10"/>
<path d="M385 370H180.692L179.875 164.995C179.798 145.611 195.49 129.856 214.875 129.856H385C404.327 129.856 420 145.543 420 164.877V334.979C420 354.313 404.327 370 385 370Z" fill="url(#paint1_angular)" stroke="#50514F" stroke-width="10"/>
<rect x="127.355" y="100.131" width="21.9288" height="97.8646" fill="#50514F" stroke="url(#paint2_linear)" stroke-width="3"/>
<rect x="227.57" y="201.496" width="95.7151" height="21.2161" fill="#50514F" stroke="url(#paint3_linear)" stroke-width="4"/>
<path d="M113.698 438.585C113.698 440.786 114.129 442.378 114.991 443.359C115.876 444.34 117.252 444.831 119.119 444.831C120.794 444.831 122.433 444.328 124.037 443.323C125.664 442.318 126.956 441.05 127.914 439.518V412.092H135.955V450H129.027L128.524 445.154C127.136 446.997 125.365 448.432 123.211 449.462C121.081 450.467 118.868 450.969 116.57 450.969C112.956 450.969 110.228 449.976 108.386 447.99C106.567 446.003 105.657 443.203 105.657 439.59V412.092H113.698V438.585ZM167.211 411.087C176.401 411.087 180.996 417.716 180.996 430.974C180.996 434.899 180.433 438.369 179.308 441.385C178.207 444.376 176.556 446.721 174.354 448.421C172.177 450.12 169.52 450.969 166.385 450.969C162.413 450.969 159.206 449.569 156.765 446.769V464.574L148.724 465.472V412.092H155.724L156.226 416.974C157.638 415.036 159.29 413.576 161.18 412.595C163.071 411.59 165.081 411.087 167.211 411.087ZM164.985 417.297C163.31 417.297 161.778 417.8 160.39 418.805C159.026 419.786 157.818 421.091 156.765 422.718V440.451C158.655 443.275 161.156 444.687 164.267 444.687C167.019 444.687 169.09 443.586 170.478 441.385C171.866 439.159 172.56 435.701 172.56 431.01C172.56 426.224 171.937 422.742 170.693 420.564C169.449 418.386 167.546 417.297 164.985 417.297ZM205.575 444.795C208.112 444.795 210.11 444.352 211.57 443.467C213.053 442.557 213.795 441.313 213.795 439.733C213.795 438.632 213.568 437.735 213.113 437.041C212.682 436.347 211.821 435.701 210.529 435.103C209.236 434.48 207.286 433.834 204.677 433.164C201.949 432.47 199.688 431.68 197.893 430.795C196.098 429.885 194.698 428.725 193.693 427.313C192.712 425.877 192.221 424.094 192.221 421.964C192.221 419.81 192.831 417.92 194.052 416.292C195.296 414.641 197.055 413.361 199.329 412.451C201.626 411.542 204.306 411.087 207.37 411.087C212.994 411.087 217.792 412.547 221.764 415.467L218.39 420.528C216.787 419.475 215.1 418.662 213.329 418.087C211.582 417.489 209.667 417.19 207.585 417.19C202.799 417.19 200.406 418.59 200.406 421.39C200.406 422.347 200.681 423.137 201.231 423.759C201.782 424.357 202.715 424.932 204.031 425.482C205.371 426.009 207.382 426.643 210.062 427.385C212.79 428.15 215.028 428.988 216.775 429.897C218.522 430.807 219.874 432.003 220.831 433.487C221.812 434.971 222.303 436.874 222.303 439.195C222.303 441.803 221.537 443.993 220.006 445.764C218.474 447.535 216.44 448.851 213.903 449.713C211.39 450.55 208.614 450.969 205.575 450.969C202.248 450.969 199.293 450.491 196.708 449.533C194.123 448.576 191.886 447.272 189.995 445.621L194.267 440.738C195.799 442.007 197.522 443 199.436 443.718C201.375 444.436 203.421 444.795 205.575 444.795ZM253.344 411.087C262.533 411.087 267.128 417.716 267.128 430.974C267.128 434.899 266.566 438.369 265.441 441.385C264.34 444.376 262.689 446.721 260.487 448.421C258.31 450.12 255.653 450.969 252.518 450.969C248.545 450.969 245.339 449.569 242.898 446.769V464.574L234.857 465.472V412.092H241.857L242.359 416.974C243.771 415.036 245.422 413.576 247.313 412.595C249.204 411.59 251.214 411.087 253.344 411.087ZM251.118 417.297C249.443 417.297 247.911 417.8 246.523 418.805C245.159 419.786 243.951 421.091 242.898 422.718V440.451C244.788 443.275 247.289 444.687 250.4 444.687C253.152 444.687 255.222 443.586 256.61 441.385C257.998 439.159 258.692 435.701 258.692 431.01C258.692 426.224 258.07 422.742 256.826 420.564C255.581 418.386 253.679 417.297 251.118 417.297ZM284.6 433.631C284.815 437.34 285.856 440.116 287.723 441.959C289.614 443.802 292.019 444.723 294.938 444.723C296.733 444.723 298.42 444.448 300 443.897C301.579 443.347 303.207 442.521 304.882 441.421L308.364 446.231C306.569 447.715 304.475 448.875 302.082 449.713C299.689 450.55 297.176 450.969 294.543 450.969C290.69 450.969 287.388 450.144 284.636 448.492C281.884 446.817 279.802 444.484 278.39 441.492C276.978 438.501 276.272 435.031 276.272 431.082C276.272 427.277 276.966 423.867 278.354 420.851C279.766 417.812 281.776 415.431 284.384 413.708C286.993 411.961 290.056 411.087 293.574 411.087C296.901 411.087 299.784 411.853 302.226 413.385C304.69 414.892 306.581 417.07 307.897 419.918C309.237 422.766 309.908 426.14 309.908 430.041C309.908 431.357 309.848 432.554 309.728 433.631H284.6ZM293.646 417.046C291.037 417.046 288.931 417.979 287.328 419.846C285.725 421.689 284.803 424.453 284.564 428.138H302.118C302.046 424.573 301.28 421.832 299.82 419.918C298.361 418.003 296.302 417.046 293.646 417.046ZM349.959 440.703C349.959 442.162 350.174 443.239 350.605 443.933C351.059 444.627 351.801 445.142 352.83 445.477L351.036 450.933C349.097 450.718 347.47 450.191 346.153 449.354C344.837 448.516 343.844 447.296 343.174 445.692C341.81 447.415 340.075 448.732 337.969 449.641C335.863 450.526 333.565 450.969 331.077 450.969C328.54 450.969 326.326 450.479 324.436 449.497C322.569 448.516 321.133 447.14 320.128 445.369C319.123 443.598 318.62 441.54 318.62 439.195C318.62 435.198 320.176 432.123 323.287 429.969C326.422 427.815 330.873 426.738 336.641 426.738H342.061V424.262C342.061 421.868 341.343 420.121 339.907 419.021C338.471 417.92 336.377 417.369 333.625 417.369C332.309 417.369 330.765 417.537 328.994 417.872C327.224 418.207 325.405 418.697 323.538 419.344L321.564 413.672C323.861 412.81 326.147 412.164 328.42 411.733C330.694 411.303 332.836 411.087 334.846 411.087C339.847 411.087 343.617 412.188 346.153 414.39C348.69 416.591 349.959 419.726 349.959 423.795V440.703ZM333.518 445.046C335.169 445.046 336.76 444.615 338.292 443.754C339.847 442.868 341.104 441.66 342.061 440.128V431.764H337.61C333.948 431.764 331.268 432.374 329.569 433.595C327.894 434.791 327.056 436.538 327.056 438.836C327.056 440.87 327.594 442.414 328.671 443.467C329.772 444.52 331.388 445.046 333.518 445.046ZM364.307 396.872L372.348 395.974V450H364.307V396.872ZM388.071 412.092H397.44L382.112 429.036L399.056 450H389.22L372.922 429.251L388.071 412.092Z" fill="url(#paint4_linear)"/>
<defs>
<radialGradient id="paint0_angular" cx="0" cy="0" r="1" gradientUnits="userSpaceOnUse" gradientTransform="translate(129 101) rotate(67.7787) scale(188.115 188.221)">
<stop stop-color="#028090"/>
<stop offset="0.21875" stop-color="#00A896"/>
</radialGradient>
<radialGradient id="paint1_angular" cx="0" cy="0" r="1" gradientUnits="userSpaceOnUse" gradientTransform="translate(228.5 202.5) rotate(67.4863) scale(186.731 186.836)">
<stop stop-color="#00A896"/>
<stop offset="1" stop-color="#02C393"/>
</radialGradient>
<linearGradient id="paint2_linear" x1="138.319" y1="98.6311" x2="138.319" y2="199.496" gradientUnits="userSpaceOnUse">
<stop stop-color="#028090"/>
<stop offset="1" stop-color="#00A896"/>
</linearGradient>
<linearGradient id="paint3_linear" x1="226" y1="212" x2="325" y2="212" gradientUnits="userSpaceOnUse">
<stop stop-color="#00A896"/>
<stop offset="1" stop-color="#02C39A"/>
</linearGradient>
<linearGradient id="paint4_linear" x1="250" y1="403" x2="250" y2="478" gradientUnits="userSpaceOnUse">
<stop stop-color="#50514F"/>
<stop offset="1" stop-color="#22223B"/>
</linearGradient>
</defs>
</svg>
